<?xml version="1.0"?>
<svg width="24" height="24" xmlns="http://www.w3.org/2000/svg" xmlns:svg="http://www.w3.org/2000/svg">
 <g class="layer">
  <title>Layer 1</title>
  <path d="m6.99,12c0,2.76 2.25,5.01 5.01,5.01s5.01,-2.25 5.01,-5.01s-2.25,-5.01 -5.01,-5.01s-5.01,2.25 -5.01,5.01zm5.01,-3.01c1.66,0 3.01,1.35 3.01,3.01s-1.35,3.01 -3.01,3.01s-3.01,-1.35 -3.01,-3.01s1.35,-3.01 3.01,-3.01zm-1,10.01l2,0l0,3l-2,0l0,-3zm0,-17l2,0l0,3l-2,0l0,-3zm-9,9l3,0l0,2l-3,0l0,-2zm17,0l3,0l0,2l-3,0l0,-2zm-14.78,7.36l2.12,-2.12l1.41,1.42l-2.12,2.12l-1.41,-1.42zm12.02,-12.02l2.12,-2.12l1.42,1.42l-2.13,2.12l-1.41,-1.42zm-9.9,1.42l-2.12,-2.12l1.41,-1.42l2.12,2.13l-1.41,1.41zm13.44,10.6l-1.42,1.42l-2.12,-2.12l1.41,-1.42l2.13,2.12z" id="svg_1"/>
 </g>
</svg>